<svg width="64" height="64" viewBox="0 0 64 64" fill="none" xmlns="http://www.w3.org/2000/svg">
<g clip-path="url(#clip0_33_200)">
<path d="M13.6355 0.0551118C13.5355 0.0941118 10.7255 1.69511 7.392 3.61111C3.353 5.93311 1.2785 7.15611 1.1675 7.27111C1.0725 7.38361 0.997502 7.51211 0.948502 7.65111C0.865002 7.93311 0.859002 49.1436 0.943502 49.4401C0.974002 49.5551 1.0735 49.7241 1.1635 49.8171C1.3815 50.0471 25.4955 63.9121 25.7885 63.9791C25.9245 64.0116 26.077 64.0061 26.2285 63.9641C26.5575 63.8816 50.6085 50.0471 50.8225 49.8211C50.91 49.7236 51.01 49.5551 51.0425 49.4406C51.0845 49.3041 51.1 47.1506 51.1 42.6131V35.9831L56.963 32.6156C62.491 29.4371 62.8295 29.2381 62.9715 29.0201L63.1165 28.7851V21.6436C63.1165 13.8696 63.1315 14.3071 62.824 14.0261C62.7415 13.9531 59.925 12.3096 56.559 10.3711L50.445 6.85511H49.7655L43.784 10.2901C40.491 12.1841 37.692 13.8036 37.5555 13.8916C37.4195 13.9816 37.257 14.1476 37.1905 14.2681L37.0695 14.4766L37.0425 21.2041L37.0185 27.9341L32.079 30.7791C29.362 32.3411 27.1005 33.6341 27.0525 33.6461C26.965 33.6706 26.959 33.0301 26.959 20.6631V7.64661L26.829 7.42311C26.666 7.15061 27.397 7.58511 20.057 3.36611C13.9015 -0.173888 14.0495 -0.0998883 13.6355 0.0551118ZM19.294 5.20861C21.869 6.68611 23.976 7.90861 23.976 7.92361C23.976 7.93911 21.718 9.24411 18.9585 10.8301L13.938 13.7126L8.9265 10.8306C6.173 9.24411 3.9165 7.93911 3.9165 7.92361C3.9165 7.90861 6.169 6.60361 8.923 5.02111L13.9225 2.14511L14.2675 2.33311C15.946 3.28661 17.6215 4.24511 19.294 5.20861ZM55.128 11.8391C57.839 13.4001 60.082 14.6901 60.103 14.7111C60.16 14.7626 50.216 20.4786 50.08 20.4726C49.944 20.4686 40.1225 14.8051 40.1265 14.7361C40.1315 14.6576 50.013 8.97261 50.113 8.98811C50.1585 8.99911 52.4165 10.2831 55.128 11.8391ZM8.15 12.6641L12.929 15.4156L12.9565 29.0391L12.9815 42.6651L13.098 42.8491C13.159 42.9461 13.274 43.0786 13.358 43.1396C13.437 43.1971 16.0965 44.7126 19.267 46.5016L25.027 49.7546V55.5181C25.027 58.6811 25.0055 61.2761 24.9785 61.2761C24.958 61.2761 19.9785 58.4266 13.9165 54.9381L2.8965 48.6006L2.8815 29.1176L2.872 9.64061L3.117 9.77611C3.2585 9.85111 5.5205 11.1501 8.1495 12.6636L8.15 12.6641ZM25.027 22.2541V34.8086L24.8335 34.9351C24.571 35.1011 15 40.6026 14.9675 40.6026C14.9525 40.6026 14.9405 34.9346 14.9405 28.0061L14.9465 15.4151L19.9465 12.5391C22.696 10.9566 24.9635 9.67261 24.9905 9.68211C25.01 9.69411 25.027 15.3521 25.027 22.2541ZM44.102 19.3666L49.1135 22.2481V27.9601C49.1135 33.3791 49.108 33.6701 49.0255 33.6386C48.972 33.6181 46.7045 32.3186 43.984 30.7516L39.029 27.9066V22.1966C39.029 19.0531 39.045 16.4846 39.06 16.4846C39.0815 16.4846 41.3485 17.7806 44.102 19.3666ZM61.184 22.1601C61.184 25.2871 61.163 27.8661 61.142 27.8911C61.106 27.9486 51.194 33.6601 51.131 33.6601C51.1155 33.6601 51.1 31.0926 51.1 27.9486V22.2386L56.1 19.3606C58.8535 17.7806 61.121 16.4846 61.142 16.4846C61.1685 16.4846 61.184 19.0371 61.184 22.1601ZM47.9965 35.4666L26.0025 48.0201L16.028 42.3466C16.028 42.3466 38 29.6386 38.088 29.6716L47.9965 35.4666ZM49.104 42.8801L49.087 48.6011L38.073 54.9391C32.013 58.4271 27.032 61.2766 27.007 61.2766C26.9805 61.2766 26.9595 58.9476 26.9595 55.5186V49.7551L37.9995 43.4591C44.0655 39.9976 49.05 37.1641 49.0765 37.1581C49.098 37.1581 49.1075 39.7321 49.1035 42.8796L49.104 42.8801Z" fill="#F0513F"/>
</g>
<defs>
<clipPath id="clip0_33_200">
<rect width="64" height="64" fill="white"/>
</clipPath>
</defs>
</svg>
