<svg width="64" height="64" viewBox="0 0 64 64" fill="none" xmlns="http://www.w3.org/2000/svg">
<path d="M0 32C0 41.2965 14.327 48.8335 32 48.8335C49.673 48.8335 64 41.2965 64 32C64 22.7035 49.6725 15.1665 32 15.1665C14.327 15.1665 0 22.7035 0 32Z" fill="url(#paint0_radial_33_204)"/>
<path d="M32 47.5835C48.9825 47.5835 62.75 40.606 62.75 32C62.75 23.393 48.9825 16.4165 32 16.4165C15.0175 16.4165 1.25 23.393 1.25 32C1.25 40.606 15.0175 47.5835 32 47.5835Z" fill="#777BB3"/>
<path d="M17.386 33.932C18.7825 33.932 19.8245 33.6745 20.484 33.167C21.137 32.664 21.5875 31.7935 21.824 30.5795C22.044 29.4445 21.96 28.6525 21.574 28.2245C21.18 27.7875 20.3275 27.566 19.0405 27.566H16.8085L15.572 33.932H17.386ZM10.0865 41.7735C10.0353 41.7734 9.98475 41.762 9.93847 41.7401C9.89219 41.7182 9.85133 41.6863 9.81883 41.6467C9.78633 41.6071 9.76299 41.5608 9.75049 41.5112C9.73799 41.4615 9.73663 41.4097 9.74652 41.3595L13.025 24.4905C13.0405 24.4116 13.0829 24.3406 13.1449 24.2894C13.2069 24.2383 13.2847 24.2102 13.365 24.21H20.432C22.653 24.21 24.306 24.813 25.3455 26.0025C26.3895 27.1975 26.7125 28.8695 26.304 30.97C26.1375 31.8255 25.8515 32.62 25.454 33.332C25.0402 34.0643 24.5123 34.726 23.89 35.292C23.1245 36.008 22.258 36.528 21.3165 36.8335C20.3905 37.1355 19.2005 37.2885 17.7815 37.2885H14.9195L14.1025 41.4925C14.0871 41.5716 14.0446 41.6429 13.9824 41.6941C13.9202 41.7454 13.8421 41.7734 13.7615 41.7735H10.0865Z" fill="#222222"/>
<path d="M17.095 27.913H19.0405C20.594 27.913 21.1335 28.2541 21.317 28.4576C21.6205 28.7945 21.6785 29.506 21.4825 30.5135C21.263 31.642 20.856 32.4425 20.2725 32.8915C19.6755 33.3515 18.7035 33.5845 17.386 33.5845H15.993L17.0955 27.9135L17.095 27.913ZM20.432 23.8631H13.3655C13.2044 23.8631 13.0482 23.9191 12.9238 24.0215C12.7994 24.1239 12.7145 24.2664 12.6835 24.4245L9.40501 41.294C9.38565 41.3945 9.38871 41.4981 9.41399 41.5972C9.43927 41.6964 9.48613 41.7887 9.55124 41.8677C9.61634 41.9466 9.69808 42.0103 9.79061 42.054C9.88314 42.0977 9.98418 42.1204 10.0865 42.1205H13.7615C13.9226 42.1204 14.0787 42.0643 14.203 41.9617C14.3273 41.8592 14.4122 41.7167 14.443 41.5585L15.2055 37.6356H17.781C19.237 37.6356 20.463 37.4766 21.4245 37.1636C22.413 36.8426 23.3225 36.298 24.1275 35.545C24.7757 34.9547 25.3257 34.2649 25.757 33.5015C26.1725 32.758 26.4715 31.928 26.6445 31.036C27.0745 28.8245 26.725 27.054 25.6065 25.774C24.4985 24.5055 22.7575 23.8625 20.432 23.8625V23.8631ZM15.1505 34.2785H17.386C18.8675 34.2785 19.971 34.0001 20.696 33.4411C21.4215 32.8831 21.91 31.951 22.165 30.6455C22.4075 29.3916 22.297 28.5071 21.8325 27.9916C21.367 27.4766 20.437 27.2185 19.0405 27.2185H16.5225L15.1505 34.2785ZM20.4325 24.556C22.5585 24.556 24.109 25.1145 25.084 26.23C26.059 27.346 26.352 28.9035 25.964 30.903C25.803 31.727 25.5325 32.48 25.1515 33.162C24.7695 33.845 24.2715 34.469 23.656 35.0355C22.922 35.722 22.1075 36.2115 21.21 36.503C20.313 36.795 19.17 36.9405 17.7815 36.9405H14.6335L13.762 41.4255H10.087L13.366 24.556H20.4325Z" fill="white"/>
<path d="M34.7295 37.2886C34.6783 37.2887 34.6277 37.2774 34.5813 37.2555C34.5349 37.2337 34.494 37.2019 34.4614 37.1624C34.4288 37.1228 34.4053 37.0766 34.3927 37.0269C34.3801 36.9772 34.3787 36.9254 34.3885 36.8751L35.8385 29.4111C35.977 28.7011 35.943 28.1921 35.7435 27.9761C35.621 27.8446 35.254 27.6241 34.1685 27.6241H31.5405L29.7175 37.0081C29.7019 37.0871 29.6593 37.1582 29.597 37.2093C29.5347 37.2604 29.4566 37.2882 29.376 37.2881H25.731C25.6798 37.2881 25.6292 37.2768 25.5829 37.2551C25.5366 37.2333 25.4956 37.2015 25.463 37.162C25.4304 37.1226 25.4069 37.0764 25.3942 37.0268C25.3815 36.9772 25.3799 36.9254 25.3895 36.8751L28.6685 20.0056C28.6841 19.9266 28.7266 19.8554 28.7888 19.8042C28.851 19.7531 28.929 19.7251 29.0095 19.7251H32.6545C32.7057 19.7251 32.7563 19.7363 32.8026 19.7581C32.849 19.7799 32.8899 19.8117 32.9226 19.8512C32.9552 19.8906 32.9787 19.9368 32.9914 19.9864C33.0041 20.036 33.0057 20.0878 32.996 20.1381L32.205 24.2101H35.0315C37.185 24.2101 38.645 24.5891 39.4955 25.3706C40.362 26.1671 40.633 27.4406 40.2995 29.1571L38.774 37.0081C38.7584 37.087 38.7159 37.1581 38.6537 37.2092C38.5915 37.2602 38.5135 37.2881 38.433 37.2881H34.7295V37.2886Z" fill="#222222"/>
<path d="M32.655 19.3774H29.0095C28.8483 19.3775 28.6921 19.4336 28.5677 19.5361C28.4433 19.6386 28.3584 19.7812 28.3275 19.9394L25.049 36.8084C25.0296 36.909 25.0326 37.0125 25.0578 37.1118C25.0831 37.211 25.1299 37.3034 25.195 37.3824C25.2601 37.4614 25.3419 37.5251 25.4345 37.5688C25.527 37.6126 25.6281 37.6353 25.7305 37.6354H29.376C29.5372 37.6354 29.6934 37.5793 29.8179 37.4768C29.9423 37.3743 30.0272 37.2317 30.058 37.0734L31.8265 27.9709H34.1675C35.2515 27.9709 35.4795 28.2024 35.488 28.2129C35.554 28.2829 35.6405 28.6104 35.4975 29.3449L34.0475 36.8084C34.0281 36.909 34.0311 37.0126 34.0564 37.1119C34.0816 37.2111 34.1285 37.3036 34.1937 37.3826C34.2589 37.4616 34.3407 37.5253 34.4333 37.569C34.526 37.6127 34.6271 37.6354 34.7295 37.6354H38.4335C38.5947 37.6353 38.7507 37.5792 38.875 37.4766C38.9994 37.3741 39.0842 37.2316 39.115 37.0734L40.6405 29.2234C40.998 27.3804 40.692 25.9984 39.7305 25.1149C38.8125 24.2719 37.2755 23.8624 35.0315 23.8624H32.6265L33.337 20.2049C33.3566 20.1043 33.3536 20.0007 33.3284 19.9013C33.3032 19.802 33.2563 19.7095 33.1911 19.6304C33.1259 19.5513 33.0441 19.4876 32.9514 19.4439C32.8587 19.4002 32.7575 19.3775 32.655 19.3774ZM32.655 20.0724L31.7835 24.5564H35.0315C37.075 24.5564 38.485 24.9134 39.26 25.6264C40.0365 26.3394 40.2685 27.4939 39.959 29.0914L38.433 36.9409H34.7295L36.18 29.4769C36.345 28.6279 36.284 28.0489 35.9975 27.7399C35.711 27.4314 35.101 27.2769 34.1685 27.2769H31.254L29.376 36.9404H25.73L29.009 20.0709H32.655V20.0724Z" fill="white"/>
<path d="M46.068 33.932C47.4645 33.932 48.507 33.6745 49.167 33.167C49.819 32.664 50.27 31.7935 50.5065 30.5795C50.7265 29.4445 50.643 28.6525 50.2565 28.2245C49.8625 27.7875 49.01 27.566 47.723 27.566H45.4915L44.254 33.932H46.068ZM38.77 41.7735C38.7187 41.7735 38.668 41.7622 38.6216 41.7404C38.5752 41.7185 38.5343 41.6867 38.5016 41.6471C38.469 41.6075 38.4456 41.5612 38.433 41.5114C38.4205 41.4617 38.4191 41.4098 38.429 41.3595L41.7075 24.4905C41.723 24.4114 41.7655 24.3403 41.8277 24.2891C41.8899 24.2379 41.968 24.21 42.0485 24.21H49.115C51.336 24.21 52.989 24.813 54.028 26.0025C55.0725 27.1975 55.395 28.8695 54.9865 30.97C54.8304 31.7974 54.5436 32.5947 54.137 33.332C53.7231 34.0642 53.1951 34.7258 52.573 35.292C51.808 36.008 50.9405 36.528 49.9995 36.8335C49.0735 37.1355 47.8835 37.2885 46.464 37.2885H43.6025L42.786 41.4925C42.7706 41.5717 42.728 41.643 42.6657 41.6943C42.6034 41.7456 42.5252 41.7736 42.4445 41.7735H38.77Z" fill="#222222"/>
<path d="M45.7775 27.913H47.723C49.2765 27.913 49.816 28.2541 49.999 28.4576C50.304 28.7945 50.361 29.506 50.1655 30.5135C49.9455 31.642 49.5385 32.4425 48.955 32.8915C48.3575 33.3515 47.3855 33.5845 46.0685 33.5845H44.6755L45.7775 27.913ZM49.1145 23.8631H42.048C41.8869 23.8632 41.7309 23.9192 41.6066 24.0217C41.4823 24.1241 41.3974 24.2665 41.3665 24.4245L38.0875 41.294C38.0681 41.3946 38.0712 41.4981 38.0965 41.5973C38.1218 41.6965 38.1687 41.7889 38.2339 41.8679C38.299 41.9469 38.3808 42.0104 38.4734 42.0541C38.566 42.0978 38.6671 42.1205 38.7695 42.1205H42.4445C42.6056 42.1204 42.7617 42.0643 42.886 41.9617C43.0103 41.8592 43.0952 41.7167 43.126 41.5585L43.8885 37.6356H46.4635C47.919 37.6356 49.1455 37.4766 50.1065 37.1636C51.0955 36.8426 52.005 36.298 52.8105 35.5445C53.4585 34.9543 54.0083 34.2647 54.4395 33.5015C54.8555 32.758 55.1535 31.928 55.327 31.036C55.757 28.8245 55.408 27.054 54.289 25.774C53.181 24.5055 51.4405 23.8625 49.114 23.8625L49.1145 23.8631ZM43.833 34.2785H46.068C47.55 34.2785 48.653 34.0001 49.379 33.4411C50.104 32.8831 50.593 31.951 50.847 30.6455C51.0905 29.3916 50.98 28.5071 50.5145 27.9916C50.0495 27.4766 49.119 27.2185 47.723 27.2185H45.2055L43.833 34.2785ZM49.1145 24.556C51.24 24.556 52.7915 25.1145 53.766 26.23C54.741 27.346 55.0345 28.9035 54.6455 30.903C54.4855 31.727 54.2145 32.48 53.8335 33.162C53.452 33.845 52.9535 34.469 52.3375 35.0355C51.604 35.722 50.789 36.2115 49.8915 36.503C48.995 36.795 47.8525 36.9405 46.4635 36.9405H43.316L42.4435 41.4255H38.7685L42.0475 24.556H49.1145Z" fill="white"/>
<defs>
<radialGradient id="paint0_radial_33_204" cx="0" cy="0" r="1" gradientUnits="userSpaceOnUse" gradientTransform="translate(19.213 21.0845) scale(42.0207)">
<stop stop-color="#AEB2D5"/>
<stop offset="0.3" stop-color="#AEB2D5"/>
<stop offset="0.75" stop-color="#484C89"/>
<stop offset="1" stop-color="#484C89"/>
</radialGradient>
</defs>
</svg>
